<mxfile host="Electron" modified="2024-06-28T20:58:48.899Z" agent="Mozilla/5.0 (Windows NT 10.0; Win64; x64) AppleWebKit/537.36 (KHTML, like Gecko) draw.io/24.6.1 Chrome/124.0.6367.207 Electron/30.0.6 Safari/537.36" etag="1yOii5ewvUNwVJeUeuNc" version="24.6.1" type="device">
  <diagram name="Сторінка-1" id="tB7PiRfuKLUJpTNlLays">
    <mxGraphModel dx="3667" dy="2822" grid="1" gridSize="10" guides="1" tooltips="1" connect="1" arrows="1" fold="1" page="1" pageScale="1" pageWidth="827" pageHeight="1169" math="0" shadow="0">
      <root>
        <mxCell id="0" />
        <mxCell id="1" parent="0" />
        <mxCell id="6nSQLXRdRfF7bbyieyoj-21" value="Rate" style="rounded=1;whiteSpace=wrap;html=1;" vertex="1" parent="1">
          <mxGeometry x="540" y="930" width="120" height="60" as="geometry" />
        </mxCell>
        <mxCell id="6nSQLXRdRfF7bbyieyoj-22" value="User" style="rounded=1;whiteSpace=wrap;html=1;" vertex="1" parent="1">
          <mxGeometry x="210" y="930" width="120" height="60" as="geometry" />
        </mxCell>
        <mxCell id="6nSQLXRdRfF7bbyieyoj-25" value="Data Access Layer" style="shape=umlFrame;whiteSpace=wrap;html=1;pointerEvents=0;width=120;height=30;" vertex="1" parent="1">
          <mxGeometry x="-380" y="720" width="1640" height="680" as="geometry" />
        </mxCell>
        <mxCell id="6nSQLXRdRfF7bbyieyoj-26" value="Business Layer" style="shape=umlFrame;whiteSpace=wrap;html=1;pointerEvents=0;width=100;height=30;" vertex="1" parent="1">
          <mxGeometry x="-380" y="160" width="1640" height="540" as="geometry" />
        </mxCell>
        <mxCell id="6nSQLXRdRfF7bbyieyoj-27" value="PostgreSQL" style="shape=cylinder3;whiteSpace=wrap;html=1;boundedLbl=1;backgroundOutline=1;size=9.39996337890625;" vertex="1" parent="1">
          <mxGeometry x="390" y="1440" width="80" height="80" as="geometry" />
        </mxCell>
        <mxCell id="6nSQLXRdRfF7bbyieyoj-28" value="UserRepo" style="rounded=1;whiteSpace=wrap;html=1;" vertex="1" parent="1">
          <mxGeometry x="210" y="810" width="120" height="60" as="geometry" />
        </mxCell>
        <mxCell id="6nSQLXRdRfF7bbyieyoj-29" value="RateRepo" style="rounded=1;whiteSpace=wrap;html=1;" vertex="1" parent="1">
          <mxGeometry x="540" y="800" width="120" height="60" as="geometry" />
        </mxCell>
        <mxCell id="6nSQLXRdRfF7bbyieyoj-34" value="NBU Fetcher" style="rounded=1;whiteSpace=wrap;html=1;" vertex="1" parent="1">
          <mxGeometry x="820" y="900" width="120" height="60" as="geometry" />
        </mxCell>
        <mxCell id="6nSQLXRdRfF7bbyieyoj-35" value="CurrencyBeacon Fetcher" style="rounded=1;whiteSpace=wrap;html=1;" vertex="1" parent="1">
          <mxGeometry x="1040" y="900" width="120" height="60" as="geometry" />
        </mxCell>
        <mxCell id="6nSQLXRdRfF7bbyieyoj-36" value="RateService" style="rounded=1;whiteSpace=wrap;html=1;" vertex="1" parent="1">
          <mxGeometry x="540" y="560" width="120" height="60" as="geometry" />
        </mxCell>
        <mxCell id="6nSQLXRdRfF7bbyieyoj-42" value="Presentation Layer" style="shape=umlFrame;whiteSpace=wrap;html=1;pointerEvents=0;width=110;height=30;" vertex="1" parent="1">
          <mxGeometry x="-380" y="-50" width="1640" height="180" as="geometry" />
        </mxCell>
        <mxCell id="6nSQLXRdRfF7bbyieyoj-12" value="GetRate Endpoint" style="rounded=1;whiteSpace=wrap;html=1;" vertex="1" parent="1">
          <mxGeometry x="150" y="10" width="120" height="60" as="geometry" />
        </mxCell>
        <mxCell id="6nSQLXRdRfF7bbyieyoj-13" value="Subscribe Endpoint" style="rounded=1;whiteSpace=wrap;html=1;" vertex="1" parent="1">
          <mxGeometry x="590" y="10" width="120" height="60" as="geometry" />
        </mxCell>
        <mxCell id="6nSQLXRdRfF7bbyieyoj-45" value="User&lt;span style=&quot;background-color: initial;&quot;&gt;Notifier&lt;/span&gt;" style="rounded=1;whiteSpace=wrap;html=1;" vertex="1" parent="1">
          <mxGeometry x="-195" y="400" width="120" height="60" as="geometry" />
        </mxCell>
        <mxCell id="6nSQLXRdRfF7bbyieyoj-48" value="" style="endArrow=block;dashed=1;endFill=0;endSize=12;html=1;rounded=0;" edge="1" parent="1" source="6nSQLXRdRfF7bbyieyoj-34" target="6nSQLXRdRfF7bbyieyoj-50">
          <mxGeometry width="160" relative="1" as="geometry">
            <mxPoint x="530" y="600" as="sourcePoint" />
            <mxPoint x="964.6153846153848" y="830" as="targetPoint" />
          </mxGeometry>
        </mxCell>
        <mxCell id="6nSQLXRdRfF7bbyieyoj-82" value="Implements" style="edgeLabel;html=1;align=center;verticalAlign=middle;resizable=0;points=[];" vertex="1" connectable="0" parent="6nSQLXRdRfF7bbyieyoj-48">
          <mxGeometry x="-0.0871" y="-5" relative="1" as="geometry">
            <mxPoint as="offset" />
          </mxGeometry>
        </mxCell>
        <mxCell id="6nSQLXRdRfF7bbyieyoj-49" value="" style="endArrow=block;dashed=1;endFill=0;endSize=12;html=1;rounded=0;" edge="1" parent="1" source="6nSQLXRdRfF7bbyieyoj-35" target="6nSQLXRdRfF7bbyieyoj-50">
          <mxGeometry width="160" relative="1" as="geometry">
            <mxPoint x="915" y="910" as="sourcePoint" />
            <mxPoint x="1015.3846153846152" y="830" as="targetPoint" />
          </mxGeometry>
        </mxCell>
        <mxCell id="6nSQLXRdRfF7bbyieyoj-83" value="Implements" style="edgeLabel;html=1;align=center;verticalAlign=middle;resizable=0;points=[];" vertex="1" connectable="0" parent="6nSQLXRdRfF7bbyieyoj-49">
          <mxGeometry x="-0.1258" y="3" relative="1" as="geometry">
            <mxPoint x="1" as="offset" />
          </mxGeometry>
        </mxCell>
        <mxCell id="6nSQLXRdRfF7bbyieyoj-50" value="«interface»&lt;br&gt;&lt;b&gt;Rate Fetcher&lt;/b&gt;" style="html=1;whiteSpace=wrap;" vertex="1" parent="1">
          <mxGeometry x="930" y="610" width="110" height="50" as="geometry" />
        </mxCell>
        <mxCell id="6nSQLXRdRfF7bbyieyoj-51" value="«interface»&lt;br&gt;&lt;b&gt;Mailer&lt;/b&gt;" style="html=1;whiteSpace=wrap;" vertex="1" parent="1">
          <mxGeometry x="-190" y="610" width="110" height="50" as="geometry" />
        </mxCell>
        <mxCell id="6nSQLXRdRfF7bbyieyoj-52" value="Console Mailer" style="rounded=1;whiteSpace=wrap;html=1;" vertex="1" parent="1">
          <mxGeometry x="-300" y="910" width="120" height="60" as="geometry" />
        </mxCell>
        <mxCell id="6nSQLXRdRfF7bbyieyoj-53" value="Gomail Mailer" style="rounded=1;whiteSpace=wrap;html=1;" vertex="1" parent="1">
          <mxGeometry x="-80" y="910" width="120" height="60" as="geometry" />
        </mxCell>
        <mxCell id="6nSQLXRdRfF7bbyieyoj-54" value="" style="endArrow=block;dashed=1;endFill=0;endSize=12;html=1;rounded=0;" edge="1" parent="1" source="6nSQLXRdRfF7bbyieyoj-52" target="6nSQLXRdRfF7bbyieyoj-51">
          <mxGeometry width="160" relative="1" as="geometry">
            <mxPoint x="230" y="600" as="sourcePoint" />
            <mxPoint x="390" y="600" as="targetPoint" />
          </mxGeometry>
        </mxCell>
        <mxCell id="6nSQLXRdRfF7bbyieyoj-81" value="Implements" style="edgeLabel;html=1;align=center;verticalAlign=middle;resizable=0;points=[];" vertex="1" connectable="0" parent="6nSQLXRdRfF7bbyieyoj-54">
          <mxGeometry x="-0.2387" y="2" relative="1" as="geometry">
            <mxPoint y="1" as="offset" />
          </mxGeometry>
        </mxCell>
        <mxCell id="6nSQLXRdRfF7bbyieyoj-55" value="" style="endArrow=block;dashed=1;endFill=0;endSize=12;html=1;rounded=0;" edge="1" parent="1" source="6nSQLXRdRfF7bbyieyoj-53" target="6nSQLXRdRfF7bbyieyoj-51">
          <mxGeometry width="160" relative="1" as="geometry">
            <mxPoint x="230" y="600" as="sourcePoint" />
            <mxPoint x="390" y="600" as="targetPoint" />
          </mxGeometry>
        </mxCell>
        <mxCell id="6nSQLXRdRfF7bbyieyoj-80" value="Implements" style="edgeLabel;html=1;align=center;verticalAlign=middle;resizable=0;points=[];" vertex="1" connectable="0" parent="6nSQLXRdRfF7bbyieyoj-55">
          <mxGeometry x="-0.1343" y="2" relative="1" as="geometry">
            <mxPoint as="offset" />
          </mxGeometry>
        </mxCell>
        <mxCell id="6nSQLXRdRfF7bbyieyoj-64" value="DB" style="rounded=1;whiteSpace=wrap;html=1;" vertex="1" parent="1">
          <mxGeometry x="370" y="1300" width="120" height="60" as="geometry" />
        </mxCell>
        <mxCell id="6nSQLXRdRfF7bbyieyoj-65" value="" style="endArrow=classic;html=1;rounded=0;" edge="1" parent="1" source="6nSQLXRdRfF7bbyieyoj-64" target="6nSQLXRdRfF7bbyieyoj-27">
          <mxGeometry width="50" height="50" relative="1" as="geometry">
            <mxPoint x="430" y="1330" as="sourcePoint" />
            <mxPoint x="480" y="1280" as="targetPoint" />
          </mxGeometry>
        </mxCell>
        <mxCell id="6nSQLXRdRfF7bbyieyoj-68" value="PlainRate Message" style="rounded=1;whiteSpace=wrap;html=1;" vertex="1" parent="1">
          <mxGeometry x="-195" y="20" width="120" height="60" as="geometry" />
        </mxCell>
        <mxCell id="6nSQLXRdRfF7bbyieyoj-71" value="Client" style="rounded=1;whiteSpace=wrap;html=1;" vertex="1" parent="1">
          <mxGeometry x="380" y="340" width="120" height="60" as="geometry" />
        </mxCell>
        <mxCell id="6nSQLXRdRfF7bbyieyoj-78" value="Use" style="endArrow=open;endSize=12;dashed=1;html=1;rounded=0;" edge="1" parent="1" source="6nSQLXRdRfF7bbyieyoj-36" target="6nSQLXRdRfF7bbyieyoj-50">
          <mxGeometry width="160" relative="1" as="geometry">
            <mxPoint x="390" y="440" as="sourcePoint" />
            <mxPoint x="550" y="440" as="targetPoint" />
          </mxGeometry>
        </mxCell>
        <mxCell id="6nSQLXRdRfF7bbyieyoj-79" value="Use" style="endArrow=open;endSize=12;dashed=1;html=1;rounded=0;" edge="1" parent="1" source="6nSQLXRdRfF7bbyieyoj-45" target="6nSQLXRdRfF7bbyieyoj-51">
          <mxGeometry width="160" relative="1" as="geometry">
            <mxPoint x="390" y="440" as="sourcePoint" />
            <mxPoint x="550" y="440" as="targetPoint" />
          </mxGeometry>
        </mxCell>
        <mxCell id="6nSQLXRdRfF7bbyieyoj-84" value="Use" style="endArrow=open;endSize=12;dashed=1;html=1;rounded=0;" edge="1" parent="1" source="6nSQLXRdRfF7bbyieyoj-45" target="6nSQLXRdRfF7bbyieyoj-86">
          <mxGeometry width="160" relative="1" as="geometry">
            <mxPoint x="50" y="570" as="sourcePoint" />
            <mxPoint x="210" y="570" as="targetPoint" />
          </mxGeometry>
        </mxCell>
        <mxCell id="6nSQLXRdRfF7bbyieyoj-85" value="Use" style="endArrow=open;endSize=12;dashed=1;html=1;rounded=0;" edge="1" parent="1" source="6nSQLXRdRfF7bbyieyoj-68" target="6nSQLXRdRfF7bbyieyoj-21">
          <mxGeometry x="-0.1529" width="160" relative="1" as="geometry">
            <mxPoint x="390" y="440" as="sourcePoint" />
            <mxPoint x="550" y="440" as="targetPoint" />
            <mxPoint as="offset" />
          </mxGeometry>
        </mxCell>
        <mxCell id="6nSQLXRdRfF7bbyieyoj-86" value="«interface»&lt;br&gt;&lt;b&gt;UserRepository&lt;/b&gt;" style="html=1;whiteSpace=wrap;" vertex="1" parent="1">
          <mxGeometry x="210" y="620" width="110" height="50" as="geometry" />
        </mxCell>
        <mxCell id="6nSQLXRdRfF7bbyieyoj-87" value="" style="endArrow=block;dashed=1;endFill=0;endSize=12;html=1;rounded=0;" edge="1" parent="1" source="6nSQLXRdRfF7bbyieyoj-28" target="6nSQLXRdRfF7bbyieyoj-86">
          <mxGeometry width="160" relative="1" as="geometry">
            <mxPoint x="370" y="740" as="sourcePoint" />
            <mxPoint x="530" y="740" as="targetPoint" />
          </mxGeometry>
        </mxCell>
        <mxCell id="6nSQLXRdRfF7bbyieyoj-88" value="Implements" style="edgeLabel;html=1;align=center;verticalAlign=middle;resizable=0;points=[];" vertex="1" connectable="0" parent="6nSQLXRdRfF7bbyieyoj-87">
          <mxGeometry x="0.0087" relative="1" as="geometry">
            <mxPoint as="offset" />
          </mxGeometry>
        </mxCell>
        <mxCell id="6nSQLXRdRfF7bbyieyoj-89" value="Use" style="endArrow=open;endSize=12;dashed=1;html=1;rounded=0;" edge="1" parent="1" source="6nSQLXRdRfF7bbyieyoj-36" target="6nSQLXRdRfF7bbyieyoj-29">
          <mxGeometry width="160" relative="1" as="geometry">
            <mxPoint x="370" y="740" as="sourcePoint" />
            <mxPoint x="530" y="740" as="targetPoint" />
          </mxGeometry>
        </mxCell>
        <mxCell id="6nSQLXRdRfF7bbyieyoj-90" value="Use" style="endArrow=open;endSize=12;dashed=1;html=1;rounded=0;" edge="1" parent="1" source="6nSQLXRdRfF7bbyieyoj-71" target="6nSQLXRdRfF7bbyieyoj-86">
          <mxGeometry width="160" relative="1" as="geometry">
            <mxPoint x="370" y="640" as="sourcePoint" />
            <mxPoint x="530" y="640" as="targetPoint" />
          </mxGeometry>
        </mxCell>
        <mxCell id="6nSQLXRdRfF7bbyieyoj-91" value="Use" style="endArrow=open;endSize=12;dashed=1;html=1;rounded=0;" edge="1" parent="1" source="6nSQLXRdRfF7bbyieyoj-13" target="6nSQLXRdRfF7bbyieyoj-71">
          <mxGeometry width="160" relative="1" as="geometry">
            <mxPoint x="370" y="340" as="sourcePoint" />
            <mxPoint x="530" y="340" as="targetPoint" />
          </mxGeometry>
        </mxCell>
        <mxCell id="6nSQLXRdRfF7bbyieyoj-92" value="Use" style="endArrow=open;endSize=12;dashed=1;html=1;rounded=0;" edge="1" parent="1" source="6nSQLXRdRfF7bbyieyoj-12" target="6nSQLXRdRfF7bbyieyoj-71">
          <mxGeometry width="160" relative="1" as="geometry">
            <mxPoint x="370" y="340" as="sourcePoint" />
            <mxPoint x="530" y="340" as="targetPoint" />
          </mxGeometry>
        </mxCell>
        <mxCell id="6nSQLXRdRfF7bbyieyoj-93" value="Use" style="endArrow=open;endSize=12;dashed=1;html=1;rounded=0;" edge="1" parent="1" source="6nSQLXRdRfF7bbyieyoj-45" target="6nSQLXRdRfF7bbyieyoj-68">
          <mxGeometry width="160" relative="1" as="geometry">
            <mxPoint x="370" y="340" as="sourcePoint" />
            <mxPoint x="530" y="340" as="targetPoint" />
          </mxGeometry>
        </mxCell>
        <mxCell id="6nSQLXRdRfF7bbyieyoj-94" value="Use" style="endArrow=open;endSize=12;dashed=1;html=1;rounded=0;" edge="1" parent="1" source="6nSQLXRdRfF7bbyieyoj-71" target="6nSQLXRdRfF7bbyieyoj-36">
          <mxGeometry width="160" relative="1" as="geometry">
            <mxPoint x="370" y="540" as="sourcePoint" />
            <mxPoint x="530" y="540" as="targetPoint" />
          </mxGeometry>
        </mxCell>
        <mxCell id="6nSQLXRdRfF7bbyieyoj-95" value="Use" style="endArrow=open;endSize=12;dashed=1;html=1;rounded=0;" edge="1" parent="1" source="6nSQLXRdRfF7bbyieyoj-45" target="6nSQLXRdRfF7bbyieyoj-36">
          <mxGeometry x="-0.3007" width="160" relative="1" as="geometry">
            <mxPoint x="370" y="540" as="sourcePoint" />
            <mxPoint x="530" y="540" as="targetPoint" />
            <mxPoint as="offset" />
          </mxGeometry>
        </mxCell>
        <mxCell id="6nSQLXRdRfF7bbyieyoj-96" value="Use" style="endArrow=open;endSize=12;dashed=1;html=1;rounded=0;" edge="1" parent="1" source="6nSQLXRdRfF7bbyieyoj-29" target="6nSQLXRdRfF7bbyieyoj-21">
          <mxGeometry width="160" relative="1" as="geometry">
            <mxPoint x="370" y="740" as="sourcePoint" />
            <mxPoint x="530" y="740" as="targetPoint" />
          </mxGeometry>
        </mxCell>
        <mxCell id="6nSQLXRdRfF7bbyieyoj-97" value="Use" style="endArrow=open;endSize=12;dashed=1;html=1;rounded=0;" edge="1" parent="1" source="6nSQLXRdRfF7bbyieyoj-28" target="6nSQLXRdRfF7bbyieyoj-22">
          <mxGeometry width="160" relative="1" as="geometry">
            <mxPoint x="290" y="860" as="sourcePoint" />
            <mxPoint x="290" y="930" as="targetPoint" />
          </mxGeometry>
        </mxCell>
        <mxCell id="6nSQLXRdRfF7bbyieyoj-98" value="«interface»&lt;br&gt;&lt;b&gt;Database&lt;/b&gt;" style="html=1;whiteSpace=wrap;" vertex="1" parent="1">
          <mxGeometry x="375" y="1110" width="110" height="50" as="geometry" />
        </mxCell>
        <mxCell id="6nSQLXRdRfF7bbyieyoj-99" value="" style="endArrow=block;dashed=1;endFill=0;endSize=12;html=1;rounded=0;" edge="1" parent="1" source="6nSQLXRdRfF7bbyieyoj-64" target="6nSQLXRdRfF7bbyieyoj-98">
          <mxGeometry width="160" relative="1" as="geometry">
            <mxPoint x="370" y="1340" as="sourcePoint" />
            <mxPoint x="530" y="1340" as="targetPoint" />
          </mxGeometry>
        </mxCell>
        <mxCell id="6nSQLXRdRfF7bbyieyoj-100" value="Implements" style="edgeLabel;html=1;align=center;verticalAlign=middle;resizable=0;points=[];" vertex="1" connectable="0" parent="6nSQLXRdRfF7bbyieyoj-99">
          <mxGeometry x="0.0086" y="1" relative="1" as="geometry">
            <mxPoint as="offset" />
          </mxGeometry>
        </mxCell>
        <mxCell id="6nSQLXRdRfF7bbyieyoj-101" value="Use" style="endArrow=open;endSize=12;dashed=1;html=1;rounded=0;" edge="1" parent="1" source="6nSQLXRdRfF7bbyieyoj-22" target="6nSQLXRdRfF7bbyieyoj-98">
          <mxGeometry width="160" relative="1" as="geometry">
            <mxPoint x="370" y="1340" as="sourcePoint" />
            <mxPoint x="530" y="1340" as="targetPoint" />
          </mxGeometry>
        </mxCell>
        <mxCell id="6nSQLXRdRfF7bbyieyoj-102" value="Use" style="endArrow=open;endSize=12;dashed=1;html=1;rounded=0;" edge="1" parent="1" source="6nSQLXRdRfF7bbyieyoj-21" target="6nSQLXRdRfF7bbyieyoj-98">
          <mxGeometry width="160" relative="1" as="geometry">
            <mxPoint x="370" y="1340" as="sourcePoint" />
            <mxPoint x="530" y="1340" as="targetPoint" />
          </mxGeometry>
        </mxCell>
      </root>
    </mxGraphModel>
  </diagram>
</mxfile>
